<svg width="18" height="18" viewBox="0 0 18 18" fill="none" xmlns="http://www.w3.org/2000/svg">
<path d="M14.4492 4.5519C14.4492 3.99799 14.0003 3.55073 13.4485 3.55073C12.8966 3.55073 12.4473 3.99799 12.4473 4.5519C12.4473 5.10377 12.8966 5.55103 13.4485 5.55103C14.0003 5.55103 14.4492 5.10377 14.4492 4.5519Z" fill="#A2A2A2"/>
<path d="M15.7824 12.3669C15.7453 13.1795 15.6094 13.6209 15.4966 13.9142C15.345 14.3029 15.1643 14.5809 14.871 14.8725C14.5811 15.1641 14.3031 15.3445 13.9143 15.4944C13.6211 15.6089 13.178 15.7452 12.3654 15.7839C11.487 15.8226 11.2267 15.8309 8.99905 15.8309C6.77349 15.8309 6.51113 15.8226 5.63268 15.7839C4.82014 15.7452 4.37906 15.6089 4.08581 15.4944C3.69499 15.3445 3.41907 15.1641 3.12749 14.8725C2.83384 14.5809 2.65305 14.3029 2.50355 13.9142C2.39069 13.6209 2.25274 13.1795 2.21772 12.3669C2.17491 11.4884 2.16706 11.224 2.16706 9.00095C2.16706 6.77332 2.17491 6.51096 2.21772 5.63251C2.25274 4.81998 2.39069 4.3789 2.50355 4.08318C2.65305 3.69483 2.83384 3.41847 3.12749 3.12689C3.41907 2.83574 3.69499 2.65493 4.08581 2.50339C4.37906 2.38849 4.82014 2.25422 5.63268 2.21552C6.51113 2.17678 6.77349 2.1669 8.99905 2.1669C11.2267 2.1669 11.487 2.17678 12.3654 2.21552C13.178 2.25422 13.6211 2.38849 13.9143 2.50339C14.3031 2.65493 14.5811 2.83574 14.871 3.12689C15.1643 3.41847 15.345 3.69483 15.4966 4.08318C15.6094 4.3789 15.7453 4.81998 15.7824 5.63251C15.8232 6.51096 15.8331 6.77332 15.8331 9.00095C15.8331 11.224 15.8232 11.4884 15.7824 12.3669ZM17.2828 5.56416C17.242 4.67623 17.1019 4.06959 16.894 3.54122C16.6823 2.99306 16.3985 2.5285 15.934 2.06395C15.4715 1.60147 15.0069 1.3177 14.4588 1.10356C13.9283 0.897627 13.3237 0.755943 12.4354 0.717241C11.5471 0.6744 11.2633 0.666584 8.99905 0.666584C6.73682 0.666584 6.45102 0.6744 5.56268 0.717241C4.67639 0.755943 4.07222 0.897627 3.53932 1.10356C2.99322 1.3177 2.52867 1.60147 2.06618 2.06395C1.60163 2.5285 1.31786 2.99306 1.10412 3.54122C0.89819 4.06959 0.758176 4.67623 0.715335 5.56416C0.676632 6.45249 0.666748 6.73666 0.666748 9.00095C0.666748 11.2632 0.676632 11.5469 0.715335 12.4352C0.758176 13.3215 0.89819 13.9277 1.10412 14.4586C1.31786 15.0047 1.60163 15.4713 2.06618 15.9338C2.52867 16.3963 2.99322 16.6821 3.53932 16.8959C4.07222 17.1018 4.67639 17.2418 5.56268 17.2826C6.45102 17.3234 6.73682 17.3333 8.99905 17.3333C11.2633 17.3333 11.5471 17.3234 12.4354 17.2826C13.3237 17.2418 13.9283 17.1018 14.4588 16.8959C15.0069 16.6821 15.4715 16.3963 15.934 15.9338C16.3985 15.4713 16.6823 15.0047 16.894 14.4586C17.1019 13.9277 17.242 13.3215 17.2828 12.4352C17.3235 11.5469 17.3334 11.2632 17.3334 9.00095C17.3334 6.73666 17.3235 6.45249 17.2828 5.56416Z" fill="#A2A2A2"/>
<path d="M8.99918 11.7763C7.46591 11.7763 6.22175 10.5342 6.22175 9.00091C6.22175 7.46517 7.46591 6.22144 8.99918 6.22144C10.5329 6.22144 11.7787 7.46517 11.7787 9.00091C11.7787 10.5342 10.5329 11.7763 8.99918 11.7763ZM8.99918 4.71905C6.63565 4.71905 4.72144 6.63737 4.72144 9.00091C4.72144 11.3624 6.63565 13.2787 8.99918 13.2787C11.3627 13.2787 13.279 11.3624 13.279 9.00091C13.279 6.63737 11.3627 4.71905 8.99918 4.71905Z" fill="#A2A2A2"/>
</svg>
