<svg width="16" height="15" viewBox="0 0 16 15" fill="none" xmlns="http://www.w3.org/2000/svg">
<path d="M15.5 8.1129V13.3636C15.5 13.5626 15.421 13.7533 15.2803 13.894C15.1397 14.0346 14.9489 14.1136 14.75 14.1136H8.75V8.1129H15.5ZM7.25 8.1129V14.1136H1.25C1.05109 14.1136 0.860322 14.0346 0.71967 13.894C0.579018 13.7533 0.5 13.5626 0.5 13.3636V8.1129H7.25ZM7.25 0.613647V6.6129H0.5V1.36365C0.5 1.16474 0.579018 0.97397 0.71967 0.833317C0.860322 0.692665 1.05109 0.613647 1.25 0.613647H7.25ZM14.75 0.613647C14.9489 0.613647 15.1397 0.692665 15.2803 0.833317C15.421 0.97397 15.5 1.16474 15.5 1.36365V6.6129H8.75V0.613647H14.75Z" fill="black"/>
</svg>
