<svg width="18" height="14" viewBox="0 0 18 14" fill="none" xmlns="http://www.w3.org/2000/svg">
<path d="M17.4683 1.71339C16.8321 1.99481 16.1574 2.17962 15.4666 2.26173C16.1947 1.82626 16.7397 1.14091 16.9999 0.333394C16.3166 0.740061 15.5674 1.02506 14.7866 1.17923C14.2621 0.618043 13.5669 0.245864 12.809 0.120548C12.0512 -0.00476716 11.2732 0.123803 10.596 0.486272C9.91875 0.84874 9.38024 1.4248 9.06418 2.12489C8.74812 2.82498 8.67221 3.60988 8.84825 4.35756C7.46251 4.28811 6.10686 3.928 4.86933 3.30061C3.63179 2.67323 2.54003 1.7926 1.66492 0.715894C1.35516 1.24794 1.19238 1.85275 1.19326 2.46839C1.19326 3.67673 1.80826 4.74423 2.74326 5.36923C2.18993 5.35181 1.64878 5.20238 1.16492 4.93339V4.97673C1.16509 5.78148 1.44356 6.56141 1.95313 7.18428C2.46269 7.80715 3.17199 8.23462 3.96075 8.39423C3.4471 8.53342 2.90851 8.55394 2.38576 8.45423C2.60814 9.14692 3.04159 9.75273 3.62541 10.1868C4.20924 10.6209 4.9142 10.8616 5.64159 10.8751C4.91866 11.4428 4.0909 11.8625 3.20566 12.1102C2.32041 12.3579 1.39503 12.4286 0.482422 12.3184C2.0755 13.3429 3.93 13.8868 5.82409 13.8851C12.2349 13.8851 15.7408 8.57423 15.7408 3.96839C15.7408 3.81839 15.7366 3.66673 15.7299 3.51839C16.4123 3.0252 17.0013 2.41424 17.4691 1.71423L17.4683 1.71339Z" fill="#A2A2A2"/>
</svg>
