<svg width="18" height="18" viewBox="0 0 18 18" fill="none" xmlns="http://www.w3.org/2000/svg">
<path d="M0.670093 17.3333L1.79676 13.1933C1.05437 11.9207 0.664339 10.4733 0.666759 8.99996C0.666759 4.39746 4.39759 0.666626 9.00009 0.666626C13.6026 0.666626 17.3334 4.39746 17.3334 8.99996C17.3334 13.6025 13.6026 17.3333 9.00009 17.3333C7.52741 17.3357 6.08064 16.9459 4.80842 16.2041L0.670093 17.3333ZM5.99259 5.08996C5.88498 5.09664 5.77982 5.12499 5.68343 5.17329C5.59303 5.22448 5.51051 5.28848 5.43843 5.36329C5.33843 5.45746 5.28176 5.53913 5.22093 5.61829C4.91293 6.01912 4.74727 6.51114 4.75009 7.01663C4.75176 7.42496 4.85843 7.82246 5.02509 8.19413C5.36593 8.94579 5.92676 9.74163 6.66759 10.4791C6.84592 10.6566 7.02009 10.835 7.20759 11.0008C8.12708 11.8103 9.2228 12.3942 10.4076 12.7058L10.8818 12.7783C11.0359 12.7866 11.1901 12.775 11.3451 12.7675C11.5878 12.7549 11.8248 12.6892 12.0393 12.575C12.1776 12.5016 12.2426 12.465 12.3584 12.3916C12.3584 12.3916 12.3943 12.3683 12.4626 12.3166C12.5751 12.2333 12.6443 12.1741 12.7376 12.0766C12.8068 12.005 12.8668 11.9208 12.9126 11.825C12.9776 11.6891 13.0426 11.43 13.0693 11.2141C13.0893 11.0491 13.0834 10.9591 13.0809 10.9033C13.0776 10.8141 13.0034 10.7216 12.9226 10.6825L12.4376 10.465C12.4376 10.465 11.7126 10.1491 11.2701 9.94746C11.2234 9.92712 11.1734 9.91554 11.1226 9.91329C11.0656 9.90744 11.008 9.91385 10.9536 9.93211C10.8993 9.95036 10.8495 9.98003 10.8076 10.0191V10.0175C10.8034 10.0175 10.7476 10.065 10.1451 10.795C10.1105 10.8414 10.0629 10.8765 10.0083 10.8958C9.95364 10.9151 9.89452 10.9177 9.83842 10.9033C9.78413 10.8888 9.73094 10.8704 9.67926 10.8483C9.57592 10.805 9.54009 10.7883 9.46926 10.7575L9.46509 10.7558C8.98835 10.5476 8.54694 10.2665 8.15676 9.92246C8.05176 9.83079 7.95426 9.73079 7.85426 9.63413C7.52641 9.32016 7.24069 8.96497 7.00426 8.57746L6.95509 8.49829C6.91978 8.4451 6.89122 8.38771 6.87009 8.32746C6.83843 8.20496 6.92092 8.10663 6.92092 8.10663C6.92092 8.10663 7.12343 7.88496 7.21759 7.76496C7.296 7.66523 7.36915 7.56148 7.43676 7.45413C7.53509 7.29579 7.56592 7.13329 7.51426 7.00746C7.28092 6.43746 7.03926 5.86996 6.79093 5.30663C6.74176 5.19496 6.59593 5.11496 6.46343 5.09913C6.41843 5.09413 6.37342 5.08913 6.32842 5.08579C6.21651 5.08023 6.10437 5.08135 5.99259 5.08913V5.08996Z" fill="#A2A2A2"/>
</svg>
